#!OML:ASF E:\acrobat2\Project_11_07_03\Capture day 1\Session 1\Acrobat.ASF
:FULLY-SPECIFIED
:DEGREES
1297
root 11.1529 4.15172 10.6304 -82.5439 2.91446 168.791
lowerback -15.693046299731593 -6.739620837051023 -3.2799544926206083
upperback -7.450020538534899 -8.174918123079566 8.474767426809414
thorax 1.3105141426294944 -6.3706894885429195 8.860795030754026
lowerneck -1.8293922978773147 -18.765277403308172 13.421452716417733
upperneck -32.36361221917432 -23.259829001556223 -0.8425179485445636
head -11.403527084123663 -10.425513693514691 -0.856154279605244
rclavicle 2.38542e-15 -1.58034e-14
rhumerus -5.241119018247931 -32.98457137191399 5.159790153857422
rradius 54.83104631834078
rwrist -27.452288390723414
rhand -24.700645254134606 -37.73589547067381
rfingers 7.759234138160199
rthumb 2.1147426245940135 -68.91854032854398
lclavicle 2.38542e-15 -1.58034e-14
lhumerus -9.757707258582972 13.455180325155975 -13.461200717116503
lradius 45.11782452567535
lwrist 28.489672806778735
lhand -14.327782103510758 -30.71405537999111
lfingers 7.461952169261902
lthumb 10.00756261497712 -2.0421470928680834
rfemur 2.3014043267061286 1.204632470181146 -0.2587875695324465
rtibia 30.563958511376775
rfoot 27.939710413290975 -19.80327113371834
rtoes 24.514064828363153
lfemur -12.992122420733144 -12.31480025994052 0.3164445820381564
ltibia 1.6385151969235405
lfoot 35.26219851582518 7.818710523813215
ltoes 4.47688
1298
root 11.1529 4.15172 10.6304 -82.5439 2.91446 168.791
lowerback -15.754715130468876 -6.698224537350029 -3.3294276642332425
upperback -7.371345521703817 -8.221041041752038 8.384108967514019
thorax 1.2325423681042595 -6.468260961621399 8.900752271996518
lowerneck -1.7978080030286083 -18.674263364146743 13.425487281615052
upperneck -32.30907114329826 -23.19302960118278 -0.9057817278813535
head -11.48373583828634 -10.439930002543562 -0.9074491514371225
rclavicle 2.38542e-15 -1.58034e-14
rhumerus -6.2386165042252095 -35.67055458803153 5.352551747612916
rradius 56.73256217405495
rwrist -27.502672057237106
rhand -24.676288129626542 -37.71112389935439
rfingers 7.7977970874350735
rthumb 2.0537175095287292 -68.84636286422321
lclavicle 2.38542e-15 -1.58034e-14
lhumerus -10.066504713185513 11.125270878361663 -18.1539749122389
lradius 46.065389595029856
lwrist 28.486056430559852
lhand -14.424071075212005 -30.6631762358827
lfingers 7.431874619714878
lthumb 10.075813845312872 -2.1185098796001895
rfemur 2.003274765690508 0.9667616997398838 -0.35137708257843325
rtibia 25.67566413570207
rfoot 28.346264419820958 -20.281887724988806
rtoes 24.10470392010797
lfemur -12.502502127789183 -12.308106634401353 0.0002485660475705087
ltibia 0.3773801942350401
lfoot 35.44949852539526 7.5421857997115875
ltoes 4.47688
1299
root 11.1529 4.15172 10.6304 -82.5439 2.91446 168.791
lowerback -15.757088039565517 -6.7064947739300935 -3.408887507205888
upperback -7.273285979460311 -8.188811240764412 8.481974313403581
thorax 1.253843022798916 -6.381931149459805 8.802668472015181
lowerneck -1.8892547096564758 -18.738290959217213 13.422073111568642
upperneck -32.21171126392541 -23.095540964564893 -0.8653532834531671
head -11.55965796073598 -10.449200698617698 -0.8337668020631217
rclavicle 2.38542e-15 -1.58034e-14
rhumerus -8.774596431538736 -31.940180605175392 10.184025139011439
rradius 54.360967151350195
rwrist -27.458656598109652
rhand -24.727445892554694 -37.696868053350585
rfingers 7.83810553623046
rthumb 1.9923420876304947 -68.7823340963789
lclavicle 2.38542e-15 -1.58034e-14
lhumerus -11.58800580390222 8.23177899955387 -23.11693027317935
lradius 45.22325496333951
lwrist 28.494808845114896
lhand -14.405231155426726 -30.610382051390697
lfingers 7.472751958282136
lthumb 10.030835923180677 -2.04767021030845
rfemur 2.2081228611271486 0.7350625381040126 -0.36320221522663076
rtibia 24.05425555616265
rfoot 28.35409894302224 -20.08618570744397
rtoes 23.69613726782291
lfemur -12.1137945708059 -12.801497874137628 -0.4749839154543847
ltibia 5.081677112960668
lfoot 35.76137233697543 7.7079310523836275
ltoes 4.47688
1300
root 11.1529 4.15172 10.6304 -82.5439 2.91446 168.791
lowerback -15.672672042888493 -6.674680993821188 -3.3160376402594554
upperback -7.278971432791377 -8.268557310424228 8.564816857688315
thorax 1.2050698748787245 -6.3880282110820055 8.768156625939083
lowerneck -1.9126112159271111 -18.66748903100126 13.454111552761544
upperneck -32.2622232993071 -23.0966406021263 -0.8658794493114859
head -11.475656649703577 -10.485186181655685 -0.908752239810932
rclavicle 2.38542e-15 -1.58034e-14
rhumerus -11.365617765636182 -28.74147903901462 10.151313748037492
rradius 52.87103781662083
rwrist -27.361380484502018
rhand -24.6293104350965 -37.740911224019335
rfingers 7.88922376609447
rthumb 2.0180733115240246 -68.68525503617556
lclavicle 2.38542e-15 -1.58034e-14
lhumerus -10.598912088301343 11.10855548928546 -24.7009661621963
lradius 47.55768388219697
lwrist 28.590036694626917
lhand -14.390699953753842 -30.550928106592508
lfingers 7.492977094441672
lthumb 9.99489909428422 -2.026528294200089
rfemur 2.5646557785927433 0.9035969789763738 0.08559619348506897
rtibia 24.936365684790186
rfoot 27.921030181274002 -19.798695324320114
rtoes 23.232363682822186
lfemur -11.914838071705539 -12.964527106789548 0.017247743321148312
ltibia 0.6948606749508519
lfoot 36.04454529698043 7.826342438034172
ltoes 4.47688
